<?xml version='1.0'?>
<svg xmlns="http://www.w3.org/2000/svg" xmlns:xlink="http://www.w3.org/1999/xlink" width="614" height="79">
<defs>
  <filter id="ds" x="0" y="0">
    <feOffset in="SourceAlpha" dx="2" dy="2" />
    <feComponentTransfer><feFuncA type="linear" slope="0.2"/></feComponentTransfer>
    <feGaussianBlur result="blurOut" stdDeviation="1" />
    <feBlend in="SourceGraphic" in2="blurOut" mode="normal" />
  </filter>
  <pattern id="disordered-hatch" patternUnits="userSpaceOnUse" width="4" height="4">
    <path d="M-1,1 l2,-2 M0,4 l4,-4 M3,5 l2,-2" stroke="#000000" opacity="0.3" />
  </pattern>
</defs>
<a xlink:title="LGI1_HUMAN, Leucine-rich glioma-inactivated protein 1 (557aa)"><rect fill="#BABDB6" x="15" y="20" width="584" height="14"/></a><a xlink:title="sig_p"><rect fill="#FFD27F" x="16.048474" y="18" width="34.599641" height="18" filter="url(#ds)"/></a>
<a xlink:title="low_complexity"><rect fill="#7FFFFF" x="38.066427" y="18" width="8.387792" height="18" filter="url(#ds)"/></a>
<a xlink:title="low_complexity"><rect fill="#C2DDFF" x="51.696589" y="18" width="8.387792" height="18" filter="url(#ds)"/></a>
<g transform="translate(85.247756,15)"><a xlink:href="http://pfam.xfam.org/family/PF13855" xlink:title="Leucine rich repeat"><rect fill="#2dcf00" x="0" y="0" width="62.908438" height="24" filter="url(#ds)"/><text style="font-size:12px;font-family:sans-serif;fill:#ffffff;" text-anchor="middle" x="31.454219" y="16">LRR_8</text></a></g>
<g transform="translate(149.204668,15)"><a xlink:href="http://pfam.xfam.org/family/PF13855" xlink:title="Leucine rich repeat"><rect fill="#2dcf00" x="0" y="0" width="49.278276" height="24" filter="url(#ds)"/><text style="font-size:12px;font-family:sans-serif;fill:#ffffff;" text-anchor="middle" x="24.639138" y="16">LRR_8</text></a></g>
<g transform="translate(250.906643,15)"><a xlink:href="http://pfam.xfam.org/family/PF03736" xlink:title="EPTP domain"><rect fill="#ff5353" x="0" y="0" width="42.987433" height="24" filter="url(#ds)"/><text style="font-size:12px;font-family:sans-serif;fill:#ffffff;" text-anchor="middle" x="21.493716" y="16">EPTP</text></a></g>
<g transform="translate(299.136445,15)"><a xlink:href="http://pfam.xfam.org/family/PF03736" xlink:title="EPTP domain"><rect fill="#ff5353" x="0" y="0" width="42.987433" height="24" filter="url(#ds)"/><text style="font-size:12px;font-family:sans-serif;fill:#ffffff;" text-anchor="middle" x="21.493716" y="16">EPTP</text></a></g>
<g transform="translate(347.366248,15)"><a xlink:href="http://pfam.xfam.org/family/PF03736" xlink:title="EPTP domain"><rect fill="#ff5353" x="0" y="0" width="48.229803" height="24" filter="url(#ds)"/><text style="font-size:12px;font-family:sans-serif;fill:#ffffff;" text-anchor="middle" x="24.114901" y="16">EPTP</text></a></g>
<g transform="translate(398.741472,15)"><a xlink:href="http://pfam.xfam.org/family/PF03736" xlink:title="EPTP domain"><rect fill="#ff5353" x="0" y="0" width="50.326750" height="24" filter="url(#ds)"/><text style="font-size:12px;font-family:sans-serif;fill:#ffffff;" text-anchor="middle" x="25.163375" y="16">EPTP</text></a></g>
<g transform="translate(454.310592,15)"><a xlink:href="http://pfam.xfam.org/family/PF03736" xlink:title="EPTP domain"><rect fill="#ff5353" x="0" y="0" width="44.035907" height="24" filter="url(#ds)"/><text style="font-size:12px;font-family:sans-serif;fill:#ffffff;" text-anchor="middle" x="22.017953" y="16">EPTP</text></a></g>
<g transform="translate(501.491921,15)"><a xlink:href="http://pfam.xfam.org/family/PF03736" xlink:title="EPTP domain"><rect fill="#ff5353" x="0" y="0" width="42.987433" height="24" filter="url(#ds)"/><text style="font-size:12px;font-family:sans-serif;fill:#ffffff;" text-anchor="middle" x="21.493716" y="16">EPTP</text></a></g>
<g transform="translate(549.721724,15)"><a xlink:href="http://pfam.xfam.org/family/PF03736" xlink:title="EPTP domain"><rect fill="#ff5353" x="0" y="0" width="41.938959" height="24" filter="url(#ds)"/><text style="font-size:12px;font-family:sans-serif;fill:#ffffff;" text-anchor="middle" x="20.969479" y="16">EPTP</text></a></g>
<g class="axis">
<line x1="15" x2="599" y1="49" y2="49" stroke="#AAAAAA" /><line x1="15" x2="15" y1="49" y2="54" stroke="#AAAAAA" /><line x1="15" x2="15" y1="49" y2="-32" stroke="#AAAAAA" /><text style="font-size:10px;font-family:sans-serif;fill:#000000;" text-anchor="middle" x="25" y="-27">-log10(rarity)</text><line x1="5" x2="15" y1="-17" y2="-17" stroke="#AAAAAA" /><text style="font-size:10px;font-family:sans-serif;fill:#000000;" text-anchor="middle" x="10" y="-17">1</text><line x1="5" x2="15" y1="-7" y2="-7" stroke="#AAAAAA" /><text style="font-size:10px;font-family:sans-serif;fill:#000000;" text-anchor="middle" x="10" y="-7">0</text><line x1="16.048474" x2="16.048474" y1="49" y2="54" stroke="#AAAAAA" /><text style="font-size:10px;font-family:sans-serif;fill:#000000;" text-anchor="middle" x="16.048474" y="64">1</text><line x1="38.066427" x2="38.066427" y1="49" y2="54" stroke="#AAAAAA" /><text style="font-size:10px;font-family:sans-serif;fill:#000000;" text-anchor="middle" x="38.066427" y="64">22</text><line x1="60.084381" x2="60.084381" y1="49" y2="54" stroke="#AAAAAA" /><text style="font-size:10px;font-family:sans-serif;fill:#000000;" text-anchor="middle" x="60.084381" y="64">43</text><line x1="85.247756" x2="85.247756" y1="49" y2="54" stroke="#AAAAAA" /><text style="font-size:10px;font-family:sans-serif;fill:#000000;" text-anchor="middle" x="85.247756" y="64">67</text><line x1="148.156194" x2="148.156194" y1="49" y2="54" stroke="#AAAAAA" /><text style="font-size:10px;font-family:sans-serif;fill:#000000;" text-anchor="middle" x="148.156194" y="64">127</text><line x1="198.482944" x2="198.482944" y1="49" y2="54" stroke="#AAAAAA" /><text style="font-size:10px;font-family:sans-serif;fill:#000000;" text-anchor="middle" x="198.482944" y="64">175</text><line x1="250.906643" x2="250.906643" y1="49" y2="54" stroke="#AAAAAA" /><text style="font-size:10px;font-family:sans-serif;fill:#000000;" text-anchor="middle" x="250.906643" y="64">225</text><line x1="293.894075" x2="293.894075" y1="49" y2="54" stroke="#AAAAAA" /><text style="font-size:10px;font-family:sans-serif;fill:#000000;" text-anchor="middle" x="293.894075" y="64">266</text><line x1="342.123878" x2="342.123878" y1="49" y2="54" stroke="#AAAAAA" /><text style="font-size:10px;font-family:sans-serif;fill:#000000;" text-anchor="middle" x="342.123878" y="64">312</text><line x1="395.596050" x2="395.596050" y1="49" y2="54" stroke="#AAAAAA" /><text style="font-size:10px;font-family:sans-serif;fill:#000000;" text-anchor="middle" x="395.596050" y="64">363</text><line x1="449.068223" x2="449.068223" y1="49" y2="54" stroke="#AAAAAA" /><text style="font-size:10px;font-family:sans-serif;fill:#000000;" text-anchor="middle" x="449.068223" y="64">414</text><line x1="498.346499" x2="498.346499" y1="49" y2="54" stroke="#AAAAAA" /><text style="font-size:10px;font-family:sans-serif;fill:#000000;" text-anchor="middle" x="498.346499" y="64">461</text><line x1="544.479354" x2="544.479354" y1="49" y2="54" stroke="#AAAAAA" /><text style="font-size:10px;font-family:sans-serif;fill:#000000;" text-anchor="middle" x="544.479354" y="64">505</text><line x1="599.000000" x2="599.000000" y1="49" y2="54" stroke="#AAAAAA" /><text style="font-size:10px;font-family:sans-serif;fill:#000000;" text-anchor="middle" x="599.000000" y="64">557</text></g>
</svg>
