<?xml version='1.0'?>
<svg xmlns="http://www.w3.org/2000/svg" xmlns:xlink="http://www.w3.org/1999/xlink" width="1045" height="79">
<defs>
  <filter id="ds" x="0" y="0">
    <feOffset in="SourceAlpha" dx="2" dy="2" />
    <feComponentTransfer><feFuncA type="linear" slope="0.2"/></feComponentTransfer>
    <feGaussianBlur result="blurOut" stdDeviation="1" />
    <feBlend in="SourceGraphic" in2="blurOut" mode="normal" />
  </filter>
  <pattern id="disordered-hatch" patternUnits="userSpaceOnUse" width="4" height="4">
    <path d="M-1,1 l2,-2 M0,4 l4,-4 M3,5 l2,-2" stroke="#000000" opacity="0.3" />
  </pattern>
</defs>
<a xlink:title="P53_HUMAN, Cellular tumor antigen p53 (393aa)"><rect fill="#BABDB6" x="15" y="20" width="1015" height="14"/></a><a xlink:title="disorder"><rect fill="url(#disordered-hatch)" x="17.582697" y="20" width="7.748092" height="14"/></a>
<a xlink:title="disorder"><rect fill="url(#disordered-hatch)" x="79.567430" y="20" width="5.165394" height="14"/></a>
<a xlink:title="disorder"><rect fill="url(#disordered-hatch)" x="92.480916" y="20" width="2.582697" height="14"/></a>
<a xlink:title="disorder"><rect fill="url(#disordered-hatch)" x="244.860051" y="20" width="12.913486" height="14"/></a>
<a xlink:title="disorder"><rect fill="url(#disordered-hatch)" x="420.483461" y="20" width="10.330789" height="14"/></a>
<a xlink:title="disorder"><rect fill="url(#disordered-hatch)" x="464.389313" y="20" width="2.582697" height="14"/></a>
<a xlink:title="disorder"><rect fill="url(#disordered-hatch)" x="572.862595" y="20" width="2.582697" height="14"/></a>
<a xlink:title="disorder"><rect fill="url(#disordered-hatch)" x="763.982188" y="20" width="72.315522" height="14"/></a>
<a xlink:title="disorder"><rect fill="url(#disordered-hatch)" x="942.188295" y="20" width="87.811705" height="14"/></a>
<a xlink:title="low_complexity"><rect fill="#C2DDFF" x="175.127226" y="18" width="67.150127" height="18" filter="url(#ds)"/></a>
<a xlink:title="disorder"><rect fill="url(#disordered-hatch)" x="100.229008" y="20" width="72.315522" height="14"/></a>
<g transform="translate(27.913486,15)"><a xlink:href="http://pfam.xfam.org/family/PF08563" xlink:title="P53 transactivation motif"><rect fill="#2dcf00" x="0" y="0" width="61.984733" height="24" filter="url(#ds)"/><text style="font-size:12px;font-family:sans-serif;fill:#ffffff;" text-anchor="middle" x="30.992366" y="16">P53_TAD</text></a></g>
<g transform="translate(260.356234,15)"><a xlink:href="http://pfam.xfam.org/family/PF00870" xlink:title="P53 DNA-binding domain"><rect fill="#ff5353" x="0" y="0" width="501.043257" height="24" filter="url(#ds)"/><text style="font-size:12px;font-family:sans-serif;fill:#ffffff;" text-anchor="middle" x="250.521628" y="16">P53 DNA-binding domain</text></a></g>
<g transform="translate(838.880407,15)"><a xlink:href="http://pfam.xfam.org/family/PF07710" xlink:title="P53 tetramerisation motif"><rect fill="#5b5bff" x="0" y="0" width="100.725191" height="24" filter="url(#ds)"/><text style="font-size:12px;font-family:sans-serif;fill:#ffffff;" text-anchor="middle" x="50.362595" y="16">P53_tetramer</text></a></g>
<g class="axis">
<line x1="15" x2="1030" y1="49" y2="49" stroke="#AAAAAA" /><line x1="15" x2="15" y1="49" y2="54" stroke="#AAAAAA" /><line x1="15" x2="15" y1="49" y2="-32" stroke="#AAAAAA" /><text style="font-size:10px;font-family:sans-serif;fill:#000000;" text-anchor="middle" x="25" y="-27">-log10(rarity)</text><line x1="5" x2="15" y1="-17" y2="-17" stroke="#AAAAAA" /><text style="font-size:10px;font-family:sans-serif;fill:#000000;" text-anchor="middle" x="10" y="-17">1</text><line x1="5" x2="15" y1="-7" y2="-7" stroke="#AAAAAA" /><text style="font-size:10px;font-family:sans-serif;fill:#000000;" text-anchor="middle" x="10" y="-7">0</text><line x1="27.913486" x2="27.913486" y1="49" y2="54" stroke="#AAAAAA" /><text style="font-size:10px;font-family:sans-serif;fill:#000000;" text-anchor="middle" x="27.913486" y="64">5</text><line x1="89.898219" x2="89.898219" y1="49" y2="54" stroke="#AAAAAA" /><text style="font-size:10px;font-family:sans-serif;fill:#000000;" text-anchor="middle" x="89.898219" y="64">29</text><line x1="175.127226" x2="175.127226" y1="49" y2="54" stroke="#AAAAAA" /><text style="font-size:10px;font-family:sans-serif;fill:#000000;" text-anchor="middle" x="175.127226" y="64">62</text><line x1="260.356234" x2="260.356234" y1="49" y2="54" stroke="#AAAAAA" /><text style="font-size:10px;font-family:sans-serif;fill:#000000;" text-anchor="middle" x="260.356234" y="64">95</text><line x1="761.399491" x2="761.399491" y1="49" y2="54" stroke="#AAAAAA" /><text style="font-size:10px;font-family:sans-serif;fill:#000000;" text-anchor="middle" x="761.399491" y="64">289</text><line x1="838.880407" x2="838.880407" y1="49" y2="54" stroke="#AAAAAA" /><text style="font-size:10px;font-family:sans-serif;fill:#000000;" text-anchor="middle" x="838.880407" y="64">319</text><line x1="939.605598" x2="939.605598" y1="49" y2="54" stroke="#AAAAAA" /><text style="font-size:10px;font-family:sans-serif;fill:#000000;" text-anchor="middle" x="939.605598" y="64">358</text><line x1="1030.000000" x2="1030.000000" y1="49" y2="54" stroke="#AAAAAA" /><text style="font-size:10px;font-family:sans-serif;fill:#000000;" text-anchor="middle" x="1030.000000" y="64">393</text></g>
</svg>
